<svg width="204" height="204" viewBox="0 0 204 204" fill="none" xmlns="http://www.w3.org/2000/svg">
<path d="M187.639 69.9021C193.092 67.8586 199.226 70.6143 200.696 76.2484C206.238 97.4863 204.802 120.051 196.436 140.546C186.737 164.31 168.435 183.543 145.182 194.409C121.928 205.275 95.4333 206.975 70.9821 199.169C46.5309 191.364 25.9211 174.628 13.2642 152.299C0.607315 129.97 -3.16619 103.69 2.69649 78.7016C8.55917 53.7134 23.627 31.854 44.8941 17.4842C66.1612 3.11439 92.0641 -2.7094 117.435 1.17464C139.317 4.52444 159.415 14.8827 174.791 30.5466C178.869 34.702 178.083 41.3805 173.529 45.009C168.975 48.6374 162.385 47.8272 158.195 43.7832C146.212 32.2155 130.877 24.5642 114.244 22.0179C94.1181 18.9368 73.5701 23.5566 56.6994 34.9558C39.8288 46.355 27.8758 63.6955 23.2251 83.518C18.5744 103.34 21.5679 124.188 31.6082 141.901C41.6486 159.614 57.9979 172.89 77.3943 179.082C96.7908 185.274 117.809 183.925 136.255 175.305C154.701 166.686 169.219 151.429 176.914 132.578C183.273 116.999 184.584 99.9117 180.815 83.688C179.497 78.0164 182.187 71.9457 187.639 69.9021Z" fill="url(#paint0_linear_0_1)"/>
<g filter="url(#filter0_d_0_1)">
<path d="M68.7045 115L78.0909 96.4091V96.2614H67.1136V91.7273H83.9091V96.2955L74.4886 115H68.7045ZM96.7138 115.318C95.0168 115.318 93.5092 115.011 92.191 114.398C90.8728 113.784 89.8312 112.939 89.066 111.864C88.3084 110.788 87.9145 109.553 87.8842 108.159H93.3388C93.3842 109.015 93.7327 109.705 94.3842 110.227C95.0357 110.742 95.8122 111 96.7138 111C97.4183 111 98.0433 110.845 98.5888 110.534C99.1342 110.223 99.5622 109.788 99.8728 109.227C100.183 108.659 100.335 108.008 100.327 107.273C100.335 106.523 100.18 105.867 99.8615 105.307C99.5509 104.746 99.1191 104.311 98.566 104C98.0206 103.682 97.3918 103.523 96.6797 103.523C96.0054 103.515 95.3653 103.663 94.7592 103.966C94.1607 104.269 93.7062 104.682 93.3956 105.205L88.4297 104.273L89.441 91.7273H104.373V96.2614H94.066L93.5319 101.75H93.6683C94.0547 101.106 94.6759 100.576 95.5319 100.159C96.3956 99.7348 97.3766 99.5227 98.4751 99.5227C99.8691 99.5227 101.111 99.8485 102.202 100.5C103.301 101.144 104.165 102.038 104.793 103.182C105.43 104.326 105.748 105.636 105.748 107.114C105.748 108.712 105.369 110.129 104.611 111.364C103.861 112.598 102.808 113.568 101.452 114.273C100.104 114.97 98.5244 115.318 96.7138 115.318ZM122.99 110.636V109.409C122.99 108.455 123.195 107.572 123.604 106.761C124.02 105.951 124.623 105.299 125.41 104.807C126.198 104.314 127.16 104.068 128.297 104.068C129.456 104.068 130.429 104.314 131.217 104.807C132.013 105.292 132.611 105.939 133.013 106.75C133.422 107.553 133.626 108.439 133.626 109.409V110.636C133.626 111.591 133.422 112.473 133.013 113.284C132.604 114.095 132.001 114.746 131.206 115.239C130.41 115.731 129.441 115.977 128.297 115.977C127.145 115.977 126.176 115.731 125.388 115.239C124.6 114.746 124.001 114.095 123.592 113.284C123.191 112.473 122.99 111.591 122.99 110.636ZM126.615 109.409V110.636C126.615 111.121 126.732 111.587 126.967 112.034C127.21 112.481 127.653 112.705 128.297 112.705C128.956 112.705 129.399 112.489 129.626 112.057C129.854 111.617 129.967 111.144 129.967 110.636V109.409C129.967 108.902 129.857 108.424 129.638 107.977C129.426 107.523 128.979 107.295 128.297 107.295C127.66 107.295 127.221 107.523 126.979 107.977C126.736 108.424 126.615 108.902 126.615 109.409ZM110.922 97.3182V96.0909C110.922 95.1212 111.13 94.2348 111.547 93.4318C111.971 92.6212 112.577 91.9735 113.365 91.4886C114.153 90.9962 115.107 90.75 116.229 90.75C117.388 90.75 118.361 90.9962 119.149 91.4886C119.945 91.9735 120.547 92.6212 120.956 93.4318C121.365 94.2348 121.57 95.1212 121.57 96.0909V97.3182C121.57 98.2879 121.361 99.1742 120.945 99.9773C120.535 100.78 119.933 101.42 119.138 101.898C118.342 102.375 117.373 102.614 116.229 102.614C115.085 102.614 114.115 102.371 113.32 101.886C112.532 101.402 111.933 100.758 111.524 99.9545C111.123 99.1515 110.922 98.2727 110.922 97.3182ZM114.581 96.0909V97.3182C114.581 97.8258 114.698 98.2992 114.933 98.7386C115.176 99.1705 115.607 99.3864 116.229 99.3864C116.895 99.3864 117.338 99.1705 117.558 98.7386C117.785 98.2992 117.899 97.8258 117.899 97.3182V96.0909C117.899 95.5833 117.793 95.1061 117.581 94.6591C117.369 94.2045 116.918 93.9773 116.229 93.9773C115.592 93.9773 115.157 94.2083 114.922 94.6705C114.695 95.1326 114.581 95.6061 114.581 96.0909ZM112.638 115L128.638 91.7273H131.74L115.74 115H112.638Z" fill="white"/>
</g>
<defs>
<filter id="filter0_d_0_1" x="63.1136" y="90.75" width="74.5127" height="33.2273" filterUnits="userSpaceOnUse" color-interpolation-filters="sRGB">
<feFlood flood-opacity="0" result="BackgroundImageFix"/>
<feColorMatrix in="SourceAlpha" type="matrix" values="0 0 0 0 0 0 0 0 0 0 0 0 0 0 0 0 0 0 127 0" result="hardAlpha"/>
<feOffset dy="4"/>
<feGaussianBlur stdDeviation="2"/>
<feComposite in2="hardAlpha" operator="out"/>
<feColorMatrix type="matrix" values="0 0 0 0 0 0 0 0 0 0 0 0 0 0 0 0 0 0 0.25 0"/>
<feBlend mode="normal" in2="BackgroundImageFix" result="effect1_dropShadow_0_1"/>
<feBlend mode="normal" in="SourceGraphic" in2="effect1_dropShadow_0_1" result="shape"/>
</filter>
<linearGradient id="paint0_linear_0_1" x1="-12.4348" y1="91.2145" x2="228.124" y2="92.098" gradientUnits="userSpaceOnUse">
<stop stop-color="#AA367C"/>
<stop offset="1" stop-color="#4A2FBD"/>
</linearGradient>
</defs>
</svg>
