<svg width="204" height="204" viewBox="0 0 204 204" fill="none" xmlns="http://www.w3.org/2000/svg">
<path d="M187.639 69.9021C193.092 67.8586 199.226 70.6143 200.696 76.2484C206.238 97.4863 204.802 120.051 196.436 140.546C186.737 164.31 168.435 183.543 145.182 194.409C121.928 205.275 95.4333 206.975 70.9821 199.169C46.5309 191.364 25.9211 174.628 13.2642 152.299C0.607315 129.97 -3.16619 103.69 2.69649 78.7016C8.55917 53.7134 23.627 31.854 44.8941 17.4842C66.1612 3.11439 92.0641 -2.7094 117.435 1.17464C139.317 4.52444 159.415 14.8827 174.791 30.5466C178.869 34.702 178.083 41.3805 173.529 45.009C168.975 48.6374 162.385 47.8272 158.195 43.7832C146.212 32.2155 130.877 24.5642 114.244 22.0179C94.1181 18.9368 73.5701 23.5566 56.6994 34.9558C39.8288 46.355 27.8758 63.6955 23.2251 83.518C18.5744 103.34 21.5679 124.188 31.6082 141.901C41.6486 159.614 57.9979 172.89 77.3943 179.082C96.7908 185.274 117.809 183.925 136.255 175.305C154.701 166.686 169.219 151.429 176.914 132.578C183.273 116.999 184.584 99.9117 180.815 83.688C179.497 78.0164 182.187 71.9457 187.639 69.9021Z" fill="url(#paint0_linear_0_1)"/>
<g filter="url(#filter0_d_0_1)">
<path d="M76.8068 115.318C74.9962 115.318 73.3788 115.03 71.9545 114.455C70.5379 113.871 69.4242 113.083 68.6136 112.091C67.8106 111.091 67.4091 109.962 67.4091 108.705C67.4091 107.742 67.6402 106.86 68.1023 106.057C68.5644 105.254 69.1894 104.587 69.9773 104.057C70.7727 103.519 71.6591 103.174 72.6364 103.023V102.841C71.3561 102.606 70.3068 102.011 69.4886 101.057C68.678 100.102 68.2727 98.9848 68.2727 97.7045C68.2727 96.4924 68.6402 95.4129 69.375 94.4659C70.1174 93.5189 71.1288 92.7727 72.4091 92.2273C73.697 91.6818 75.1629 91.4091 76.8068 91.4091C78.4508 91.4091 79.9129 91.6818 81.1932 92.2273C82.4811 92.7727 83.4924 93.5189 84.2273 94.4659C84.9697 95.4129 85.3409 96.4924 85.3409 97.7045C85.3409 98.9924 84.928 100.114 84.1023 101.068C83.2841 102.015 82.2424 102.606 80.9773 102.841V103.023C81.947 103.174 82.8258 103.519 83.6136 104.057C84.4091 104.587 85.0379 105.254 85.5 106.057C85.9697 106.86 86.2045 107.742 86.2045 108.705C86.2045 109.962 85.7992 111.091 84.9886 112.091C84.178 113.083 83.0644 113.871 81.6477 114.455C80.2386 115.03 78.625 115.318 76.8068 115.318ZM76.8068 111.33C77.4962 111.33 78.1023 111.201 78.625 110.943C79.1477 110.678 79.5568 110.311 79.8523 109.841C80.1553 109.371 80.3068 108.841 80.3068 108.25C80.3068 107.644 80.1553 107.106 79.8523 106.636C79.5492 106.167 79.1326 105.799 78.6023 105.534C78.0795 105.261 77.4811 105.125 76.8068 105.125C76.1402 105.125 75.5417 105.261 75.0114 105.534C74.4811 105.799 74.0644 106.167 73.7614 106.636C73.4583 107.106 73.3068 107.644 73.3068 108.25C73.3068 108.841 73.4545 109.371 73.75 109.841C74.053 110.303 74.4659 110.667 74.9886 110.932C75.5189 111.197 76.125 111.33 76.8068 111.33ZM76.8068 101.159C77.3977 101.159 77.9205 101.038 78.375 100.795C78.8371 100.553 79.197 100.216 79.4545 99.7841C79.7197 99.3523 79.8523 98.8636 79.8523 98.3182C79.8523 97.7727 79.7197 97.2917 79.4545 96.875C79.197 96.4583 78.8409 96.1326 78.3864 95.8977C77.9318 95.6553 77.4053 95.5341 76.8068 95.5341C76.2159 95.5341 75.6894 95.6553 75.2273 95.8977C74.7652 96.1326 74.4053 96.4583 74.1477 96.875C73.8902 97.2917 73.7614 97.7727 73.7614 98.3182C73.7614 98.8636 73.8902 99.3523 74.1477 99.7841C74.4129 100.208 74.7765 100.545 75.2386 100.795C75.7008 101.038 76.2235 101.159 76.8068 101.159ZM100.086 115.568C98.0556 115.568 96.3056 115.087 94.8359 114.125C93.3662 113.155 92.2336 111.765 91.4382 109.955C90.6427 108.136 90.2488 105.951 90.2564 103.398C90.2639 100.845 90.6617 98.678 91.4495 96.8977C92.245 95.1098 93.3738 93.75 94.8359 92.8182C96.3056 91.8788 98.0556 91.4091 100.086 91.4091C102.116 91.4091 103.866 91.8788 105.336 92.8182C106.813 93.75 107.95 95.1098 108.745 96.8977C109.54 98.6856 109.934 100.852 109.927 103.398C109.927 105.958 109.529 108.148 108.734 109.966C107.938 111.784 106.806 113.174 105.336 114.136C103.874 115.091 102.124 115.568 100.086 115.568ZM100.086 110.966C101.298 110.966 102.279 110.348 103.029 109.114C103.779 107.871 104.15 105.966 104.143 103.398C104.143 101.716 103.972 100.33 103.631 99.2386C103.29 98.1402 102.817 97.322 102.211 96.7841C101.605 96.2462 100.897 95.9773 100.086 95.9773C98.8814 95.9773 97.9079 96.5871 97.1655 97.8068C96.423 99.0189 96.048 100.883 96.0405 103.398C96.0329 105.102 96.1958 106.515 96.5291 107.636C96.87 108.758 97.3473 109.595 97.9609 110.148C98.5745 110.693 99.2829 110.966 100.086 110.966ZM127.303 110.636V109.409C127.303 108.455 127.507 107.572 127.916 106.761C128.333 105.951 128.935 105.299 129.723 104.807C130.511 104.314 131.473 104.068 132.609 104.068C133.768 104.068 134.742 104.314 135.53 104.807C136.325 105.292 136.924 105.939 137.325 106.75C137.734 107.553 137.939 108.439 137.939 109.409V110.636C137.939 111.591 137.734 112.473 137.325 113.284C136.916 114.095 136.314 114.746 135.518 115.239C134.723 115.731 133.753 115.977 132.609 115.977C131.458 115.977 130.488 115.731 129.7 115.239C128.912 114.746 128.314 114.095 127.905 113.284C127.503 112.473 127.303 111.591 127.303 110.636ZM130.928 109.409V110.636C130.928 111.121 131.045 111.587 131.28 112.034C131.522 112.481 131.965 112.705 132.609 112.705C133.268 112.705 133.712 112.489 133.939 112.057C134.166 111.617 134.28 111.144 134.28 110.636V109.409C134.28 108.902 134.17 108.424 133.95 107.977C133.738 107.523 133.291 107.295 132.609 107.295C131.973 107.295 131.534 107.523 131.291 107.977C131.049 108.424 130.928 108.902 130.928 109.409ZM115.234 97.3182V96.0909C115.234 95.1212 115.443 94.2348 115.859 93.4318C116.284 92.6212 116.89 91.9735 117.678 91.4886C118.465 90.9962 119.42 90.75 120.541 90.75C121.7 90.75 122.674 90.9962 123.462 91.4886C124.257 91.9735 124.859 92.6212 125.268 93.4318C125.678 94.2348 125.882 95.1212 125.882 96.0909V97.3182C125.882 98.2879 125.674 99.1742 125.257 99.9773C124.848 100.78 124.246 101.42 123.45 101.898C122.655 102.375 121.685 102.614 120.541 102.614C119.397 102.614 118.428 102.371 117.632 101.886C116.844 101.402 116.246 100.758 115.837 99.9545C115.435 99.1515 115.234 98.2727 115.234 97.3182ZM118.893 96.0909V97.3182C118.893 97.8258 119.011 98.2992 119.246 98.7386C119.488 99.1705 119.92 99.3864 120.541 99.3864C121.208 99.3864 121.651 99.1705 121.871 98.7386C122.098 98.2992 122.212 97.8258 122.212 97.3182V96.0909C122.212 95.5833 122.106 95.1061 121.893 94.6591C121.681 94.2045 121.231 93.9773 120.541 93.9773C119.905 93.9773 119.469 94.2083 119.234 94.6705C119.007 95.1326 118.893 95.6061 118.893 96.0909ZM116.95 115L132.95 91.7273H136.053L120.053 115H116.95Z" fill="white"/>
</g>
<defs>
<filter id="filter0_d_0_1" x="63.4091" y="90.75" width="78.5297" height="33.2273" filterUnits="userSpaceOnUse" color-interpolation-filters="sRGB">
<feFlood flood-opacity="0" result="BackgroundImageFix"/>
<feColorMatrix in="SourceAlpha" type="matrix" values="0 0 0 0 0 0 0 0 0 0 0 0 0 0 0 0 0 0 127 0" result="hardAlpha"/>
<feOffset dy="4"/>
<feGaussianBlur stdDeviation="2"/>
<feComposite in2="hardAlpha" operator="out"/>
<feColorMatrix type="matrix" values="0 0 0 0 0 0 0 0 0 0 0 0 0 0 0 0 0 0 0.25 0"/>
<feBlend mode="normal" in2="BackgroundImageFix" result="effect1_dropShadow_0_1"/>
<feBlend mode="normal" in="SourceGraphic" in2="effect1_dropShadow_0_1" result="shape"/>
</filter>
<linearGradient id="paint0_linear_0_1" x1="-12.4348" y1="91.2145" x2="228.124" y2="92.098" gradientUnits="userSpaceOnUse">
<stop stop-color="#AA367C"/>
<stop offset="1" stop-color="#4A2FBD"/>
</linearGradient>
</defs>
</svg>
