<svg width="204" height="204" viewBox="0 0 204 204" fill="none" xmlns="http://www.w3.org/2000/svg">
<path d="M187.639 69.9021C193.092 67.8586 199.226 70.6143 200.696 76.2484C206.238 97.4863 204.802 120.051 196.436 140.546C186.737 164.31 168.435 183.543 145.182 194.409C121.928 205.275 95.4333 206.975 70.9821 199.169C46.5309 191.364 25.9211 174.628 13.2642 152.299C0.607315 129.97 -3.16619 103.69 2.69649 78.7016C8.55917 53.7134 23.627 31.854 44.8941 17.4842C66.1612 3.11439 92.0641 -2.7094 117.435 1.17464C139.317 4.52444 159.415 14.8827 174.791 30.5466C178.869 34.702 178.083 41.3805 173.529 45.009C168.975 48.6374 162.385 47.8272 158.195 43.7832C146.212 32.2155 130.877 24.5642 114.244 22.0179C94.1181 18.9368 73.5701 23.5566 56.6994 34.9558C39.8288 46.355 27.8758 63.6955 23.2251 83.518C18.5744 103.34 21.5679 124.188 31.6082 141.901C41.6486 159.614 57.9979 172.89 77.3943 179.082C96.7908 185.274 117.809 183.925 136.255 175.305C154.701 166.686 169.219 151.429 176.914 132.578C183.273 116.999 184.584 99.9117 180.815 83.688C179.497 78.0164 182.187 71.9457 187.639 69.9021Z" fill="url(#paint0_linear_0_1)"/>
<g filter="url(#filter0_d_0_1)">
<path d="M68.7045 115L78.0909 96.4091V96.2614H67.1136V91.7273H83.9091V96.2955L74.4886 115H68.7045ZM97.2422 115.568C95.2119 115.568 93.4619 115.087 91.9922 114.125C90.5225 113.155 89.3899 111.765 88.5944 109.955C87.799 108.136 87.405 105.951 87.4126 103.398C87.4202 100.845 87.8179 98.678 88.6058 96.8977C89.4013 95.1098 90.53 93.75 91.9922 92.8182C93.4619 91.8788 95.2119 91.4091 97.2422 91.4091C99.2725 91.4091 101.022 91.8788 102.492 92.8182C103.969 93.75 105.106 95.1098 105.901 96.8977C106.697 98.6856 107.091 100.852 107.083 103.398C107.083 105.958 106.685 108.148 105.89 109.966C105.094 111.784 103.962 113.174 102.492 114.136C101.03 115.091 99.28 115.568 97.2422 115.568ZM97.2422 110.966C98.4543 110.966 99.4353 110.348 100.185 109.114C100.935 107.871 101.307 105.966 101.299 103.398C101.299 101.716 101.129 100.33 100.788 99.2386C100.447 98.1402 99.9732 97.322 99.3672 96.7841C98.7611 96.2462 98.0528 95.9773 97.2422 95.9773C96.0376 95.9773 95.0641 96.5871 94.3217 97.8068C93.5793 99.0189 93.2043 100.883 93.1967 103.398C93.1891 105.102 93.352 106.515 93.6853 107.636C94.0263 108.758 94.5035 109.595 95.1172 110.148C95.7308 110.693 96.4391 110.966 97.2422 110.966ZM124.459 110.636V109.409C124.459 108.455 124.663 107.572 125.072 106.761C125.489 105.951 126.091 105.299 126.879 104.807C127.667 104.314 128.629 104.068 129.766 104.068C130.925 104.068 131.898 104.314 132.686 104.807C133.481 105.292 134.08 105.939 134.481 106.75C134.891 107.553 135.095 108.439 135.095 109.409V110.636C135.095 111.591 134.891 112.473 134.481 113.284C134.072 114.095 133.47 114.746 132.675 115.239C131.879 115.731 130.91 115.977 129.766 115.977C128.614 115.977 127.644 115.731 126.856 115.239C126.069 114.746 125.47 114.095 125.061 113.284C124.66 112.473 124.459 111.591 124.459 110.636ZM128.084 109.409V110.636C128.084 111.121 128.201 111.587 128.436 112.034C128.678 112.481 129.122 112.705 129.766 112.705C130.425 112.705 130.868 112.489 131.095 112.057C131.322 111.617 131.436 111.144 131.436 110.636V109.409C131.436 108.902 131.326 108.424 131.106 107.977C130.894 107.523 130.447 107.295 129.766 107.295C129.129 107.295 128.69 107.523 128.447 107.977C128.205 108.424 128.084 108.902 128.084 109.409ZM112.391 97.3182V96.0909C112.391 95.1212 112.599 94.2348 113.016 93.4318C113.44 92.6212 114.046 91.9735 114.834 91.4886C115.622 90.9962 116.576 90.75 117.697 90.75C118.856 90.75 119.83 90.9962 120.618 91.4886C121.413 91.9735 122.016 92.6212 122.425 93.4318C122.834 94.2348 123.038 95.1212 123.038 96.0909V97.3182C123.038 98.2879 122.83 99.1742 122.413 99.9773C122.004 100.78 121.402 101.42 120.606 101.898C119.811 102.375 118.841 102.614 117.697 102.614C116.553 102.614 115.584 102.371 114.788 101.886C114 101.402 113.402 100.758 112.993 99.9545C112.591 99.1515 112.391 98.2727 112.391 97.3182ZM116.05 96.0909V97.3182C116.05 97.8258 116.167 98.2992 116.402 98.7386C116.644 99.1705 117.076 99.3864 117.697 99.3864C118.364 99.3864 118.807 99.1705 119.027 98.7386C119.254 98.2992 119.368 97.8258 119.368 97.3182V96.0909C119.368 95.5833 119.262 95.1061 119.05 94.6591C118.838 94.2045 118.387 93.9773 117.697 93.9773C117.061 93.9773 116.625 94.2083 116.391 94.6705C116.163 95.1326 116.05 95.6061 116.05 96.0909ZM114.106 115L130.106 91.7273H133.209L117.209 115H114.106Z" fill="white"/>
</g>
<defs>
<filter id="filter0_d_0_1" x="63.1136" y="90.75" width="75.9814" height="33.2273" filterUnits="userSpaceOnUse" color-interpolation-filters="sRGB">
<feFlood flood-opacity="0" result="BackgroundImageFix"/>
<feColorMatrix in="SourceAlpha" type="matrix" values="0 0 0 0 0 0 0 0 0 0 0 0 0 0 0 0 0 0 127 0" result="hardAlpha"/>
<feOffset dy="4"/>
<feGaussianBlur stdDeviation="2"/>
<feComposite in2="hardAlpha" operator="out"/>
<feColorMatrix type="matrix" values="0 0 0 0 0 0 0 0 0 0 0 0 0 0 0 0 0 0 0.25 0"/>
<feBlend mode="normal" in2="BackgroundImageFix" result="effect1_dropShadow_0_1"/>
<feBlend mode="normal" in="SourceGraphic" in2="effect1_dropShadow_0_1" result="shape"/>
</filter>
<linearGradient id="paint0_linear_0_1" x1="-12.4348" y1="91.2145" x2="228.124" y2="92.098" gradientUnits="userSpaceOnUse">
<stop stop-color="#AA367C"/>
<stop offset="1" stop-color="#4A2FBD"/>
</linearGradient>
</defs>
</svg>
